<svg xmlns="http://www.w3.org/2000/svg" width="40" height="40" viewBox="0 0 40 40">
  <path id="mail" d="M33.585,7.862H6.415A6.434,6.434,0,0,0,0,14.277v27.17a6.434,6.434,0,0,0,6.415,6.415h27.17A6.434,6.434,0,0,0,40,41.447V14.277a6.434,6.434,0,0,0-6.415-6.415m2.286,7.06L21.06,28.979a.223.223,0,0,1-.028.023.478.478,0,0,1-.067.059c-.013.01-.026.023-.041.033-.033.023-.067.049-.1.069a1.155,1.155,0,0,1-.108.062.58.58,0,0,1-.09.044.109.109,0,0,1-.036.015.879.879,0,0,1-.087.033,1.323,1.323,0,0,1-.2.054.61.61,0,0,1-.095.015.28.28,0,0,1-.067.008A1.265,1.265,0,0,1,20,29.4a1.336,1.336,0,0,1-.141-.008.28.28,0,0,1-.067-.008.61.61,0,0,1-.095-.015,1.323,1.323,0,0,1-.2-.054.878.878,0,0,1-.087-.033.109.109,0,0,1-.036-.015.58.58,0,0,1-.09-.044,1.154,1.154,0,0,1-.108-.062c-.036-.021-.069-.046-.1-.069a.259.259,0,0,1-.041-.033A.478.478,0,0,1,18.969,29a.124.124,0,0,1-.028-.023L4.127,14.922a1.539,1.539,0,1,1,2.12-2.232L20,25.74,33.751,12.689a1.539,1.539,0,1,1,2.12,2.232" transform="translate(0 -7.862)" fill="#fff"/>
</svg>
